<?xml version="1.0" encoding="UTF-8"?>
<svg xmlns="http://www.w3.org/2000/svg" xmlns:xlink="http://www.w3.org/1999/xlink" width="36pt" height="36.000001pt" viewBox="0 0 36 36.000001" version="1.2">
<defs>
<clipPath id="clip1">
  <path d="M 15 15 L 32 15 L 32 32 L 15 32 Z M 15 15 "/>
</clipPath>
<clipPath id="clip2">
  <path d="M 14.902344 -7.070312 L 42.765625 20.792969 L 21.09375 42.464844 L -6.769531 14.601562 Z M 14.902344 -7.070312 "/>
</clipPath>
<clipPath id="clip3">
  <path d="M 42.582031 20.605469 L 14.714844 -7.257812 L -6.957031 14.414062 L 20.910156 42.277344 Z M 42.582031 20.605469 "/>
</clipPath>
<clipPath id="clip4">
  <path d="M 15 15 L 33 15 L 33 32 L 15 32 Z M 15 15 "/>
</clipPath>
<clipPath id="clip5">
  <path d="M 14.902344 -7.070312 L 42.765625 20.792969 L 21.09375 42.464844 L -6.769531 14.601562 Z M 14.902344 -7.070312 "/>
</clipPath>
<clipPath id="clip6">
  <path d="M 42.582031 20.605469 L 14.714844 -7.257812 L -6.957031 14.414062 L 20.910156 42.277344 Z M 42.582031 20.605469 "/>
</clipPath>
<clipPath id="clip7">
  <path d="M 3 3 L 20 3 L 20 20 L 3 20 Z M 3 3 "/>
</clipPath>
<clipPath id="clip8">
  <path d="M 14.902344 -7.070312 L 42.765625 20.792969 L 21.09375 42.464844 L -6.769531 14.601562 Z M 14.902344 -7.070312 "/>
</clipPath>
<clipPath id="clip9">
  <path d="M 42.582031 20.605469 L 14.714844 -7.257812 L -6.957031 14.414062 L 20.910156 42.277344 Z M 42.582031 20.605469 "/>
</clipPath>
<clipPath id="clip10">
  <path d="M 3 3 L 21 3 L 21 20 L 3 20 Z M 3 3 "/>
</clipPath>
<clipPath id="clip11">
  <path d="M 14.902344 -7.070312 L 42.765625 20.792969 L 21.09375 42.464844 L -6.769531 14.601562 Z M 14.902344 -7.070312 "/>
</clipPath>
<clipPath id="clip12">
  <path d="M 42.582031 20.605469 L 14.714844 -7.257812 L -6.957031 14.414062 L 20.910156 42.277344 Z M 42.582031 20.605469 "/>
</clipPath>
<clipPath id="clip13">
  <path d="M 10 2 L 25 2 L 25 33 L 10 33 Z M 10 2 "/>
</clipPath>
<clipPath id="clip14">
  <path d="M 14.902344 -7.070312 L 42.765625 20.792969 L 21.09375 42.464844 L -6.769531 14.601562 Z M 14.902344 -7.070312 "/>
</clipPath>
<clipPath id="clip15">
  <path d="M 42.582031 20.605469 L 14.714844 -7.257812 L -6.957031 14.414062 L 20.910156 42.277344 Z M 42.582031 20.605469 "/>
</clipPath>
<clipPath id="clip16">
  <path d="M 10 2 L 26 2 L 26 33 L 10 33 Z M 10 2 "/>
</clipPath>
<clipPath id="clip17">
  <path d="M 14.902344 -7.070312 L 42.765625 20.792969 L 21.09375 42.464844 L -6.769531 14.601562 Z M 14.902344 -7.070312 "/>
</clipPath>
<clipPath id="clip18">
  <path d="M 42.582031 20.605469 L 14.714844 -7.257812 L -6.957031 14.414062 L 20.910156 42.277344 Z M 42.582031 20.605469 "/>
</clipPath>
</defs>
<g id="surface1">
<g clip-path="url(#clip1)" clip-rule="nonzero">
<g clip-path="url(#clip2)" clip-rule="nonzero">
<g clip-path="url(#clip3)" clip-rule="nonzero">
<path style=" stroke:none;fill-rule:nonzero;fill:rgb(99.609375%,98.429871%,99.609375%);fill-opacity:1;" d="M 16.121094 29.484375 C 16.273438 29.640625 16.476562 29.738281 16.695312 29.761719 L 30.628906 31.414062 C 30.929688 31.449219 31.222656 31.347656 31.433594 31.132812 C 31.648438 30.921875 31.75 30.625 31.714844 30.324219 L 30.066406 16.390625 C 30.039062 16.175781 29.941406 15.972656 29.785156 15.816406 C 29.574219 15.605469 29.28125 15.5 28.980469 15.539062 C 28.722656 15.570312 28.488281 15.699219 28.328125 15.90625 C 28.167969 16.109375 28.09375 16.367188 28.125 16.625 L 29.628906 29.324219 L 16.929688 27.824219 C 16.667969 27.792969 16.410156 27.863281 16.207031 28.027344 C 16 28.1875 15.875 28.417969 15.839844 28.679688 C 15.804688 28.976562 15.90625 29.273438 16.121094 29.484375 "/>
</g>
</g>
</g>
<g clip-path="url(#clip4)" clip-rule="nonzero">
<g clip-path="url(#clip5)" clip-rule="nonzero">
<g clip-path="url(#clip6)" clip-rule="nonzero">
<path style=" stroke:none;fill-rule:nonzero;fill:rgb(1.959229%,25.099182%,26.669312%);fill-opacity:1;" d="M 30.082031 15.523438 C 30.300781 15.742188 30.441406 16.03125 30.476562 16.339844 L 32.128906 30.277344 C 32.179688 30.707031 32.03125 31.125 31.730469 31.425781 C 31.425781 31.730469 31.003906 31.875 30.578125 31.828125 L 16.644531 30.175781 C 16.335938 30.140625 16.042969 30 15.824219 29.777344 C 15.519531 29.476562 15.375 29.054688 15.429688 28.628906 C 15.472656 28.257812 15.65625 27.929688 15.949219 27.699219 C 16.242188 27.46875 16.605469 27.363281 16.976562 27.410156 L 29.152344 28.851562 L 27.710938 16.675781 C 27.667969 16.304688 27.769531 15.941406 28 15.648438 C 28.230469 15.355469 28.5625 15.167969 28.933594 15.125 C 29.359375 15.074219 29.777344 15.21875 30.082031 15.523438 Z M 29.492188 16.113281 C 29.375 15.996094 29.207031 15.929688 29.03125 15.949219 C 28.71875 15.988281 28.5 16.269531 28.539062 16.574219 L 30.105469 29.800781 L 16.878906 28.234375 C 16.570312 28.199219 16.289062 28.417969 16.253906 28.726562 C 16.230469 28.90625 16.296875 29.074219 16.414062 29.191406 C 16.5 29.277344 16.613281 29.335938 16.742188 29.351562 L 30.679688 31 C 30.847656 31.019531 31.019531 30.960938 31.140625 30.839844 C 31.265625 30.71875 31.320312 30.546875 31.300781 30.375 L 29.652344 16.441406 C 29.636719 16.3125 29.578125 16.199219 29.492188 16.113281 "/>
</g>
</g>
</g>
<g clip-path="url(#clip7)" clip-rule="nonzero">
<g clip-path="url(#clip8)" clip-rule="nonzero">
<g clip-path="url(#clip9)" clip-rule="nonzero">
<path style=" stroke:none;fill-rule:nonzero;fill:rgb(99.609375%,98.429871%,99.609375%);fill-opacity:1;" d="M 5.835938 19.203125 C 6.050781 19.414062 6.34375 19.515625 6.644531 19.484375 C 7.179688 19.417969 7.5625 18.929688 7.5 18.394531 L 5.996094 5.695312 L 18.699219 7.195312 C 19.234375 7.261719 19.71875 6.878906 19.785156 6.34375 C 19.820312 6.042969 19.71875 5.75 19.503906 5.535156 C 19.351562 5.382812 19.148438 5.28125 18.929688 5.257812 L 4.996094 3.605469 C 4.695312 3.570312 4.402344 3.675781 4.191406 3.886719 C 3.976562 4.101562 3.875 4.394531 3.910156 4.695312 L 5.558594 18.628906 C 5.582031 18.847656 5.683594 19.050781 5.835938 19.203125 "/>
</g>
</g>
</g>
<g clip-path="url(#clip10)" clip-rule="nonzero">
<g clip-path="url(#clip11)" clip-rule="nonzero">
<g clip-path="url(#clip12)" clip-rule="nonzero">
<path style=" stroke:none;fill-rule:nonzero;fill:rgb(1.959229%,25.099182%,26.669312%);fill-opacity:1;" d="M 19.800781 5.242188 C 20.101562 5.542969 20.25 5.964844 20.199219 6.390625 C 20.105469 7.15625 19.410156 7.699219 18.648438 7.609375 L 6.472656 6.167969 L 7.914062 18.347656 C 8.003906 19.109375 7.457031 19.804688 6.695312 19.894531 C 6.265625 19.945312 5.847656 19.800781 5.542969 19.496094 C 5.324219 19.277344 5.183594 18.988281 5.144531 18.679688 L 3.496094 4.742188 C 3.445312 4.316406 3.59375 3.898438 3.894531 3.59375 C 4.199219 3.289062 4.617188 3.144531 5.042969 3.191406 L 18.980469 4.84375 C 19.289062 4.878906 19.578125 5.023438 19.800781 5.242188 Z M 19.210938 5.832031 C 19.125 5.746094 19.011719 5.683594 18.882812 5.671875 L 4.945312 4.019531 C 4.777344 4 4.605469 4.058594 4.484375 4.183594 C 4.363281 4.304688 4.300781 4.472656 4.320312 4.644531 L 5.972656 18.578125 C 5.988281 18.707031 6.046875 18.824219 6.132812 18.910156 C 6.25 19.027344 6.417969 19.089844 6.59375 19.066406 C 6.902344 19.03125 7.125 18.753906 7.085938 18.445312 L 5.519531 5.21875 L 18.746094 6.785156 C 19.054688 6.820312 19.332031 6.601562 19.371094 6.292969 C 19.394531 6.117188 19.328125 5.945312 19.210938 5.832031 "/>
</g>
</g>
</g>
<g clip-path="url(#clip13)" clip-rule="nonzero">
<g clip-path="url(#clip14)" clip-rule="nonzero">
<g clip-path="url(#clip15)" clip-rule="nonzero">
<path style=" stroke:none;fill-rule:nonzero;fill:rgb(99.609375%,98.429871%,99.609375%);fill-opacity:1;" d="M 11.144531 31.921875 C 11.230469 32.007812 11.328125 32.074219 11.441406 32.125 C 11.679688 32.230469 11.945312 32.234375 12.1875 32.140625 C 12.433594 32.046875 12.625 31.863281 12.730469 31.625 L 24.816406 4.316406 C 24.976562 3.953125 24.898438 3.515625 24.617188 3.234375 C 24.53125 3.148438 24.429688 3.078125 24.316406 3.03125 C 23.828125 2.8125 23.246094 3.039062 23.027344 3.53125 L 10.941406 30.835938 C 10.78125 31.203125 10.863281 31.640625 11.144531 31.921875 "/>
</g>
</g>
</g>
<g clip-path="url(#clip16)" clip-rule="nonzero">
<g clip-path="url(#clip17)" clip-rule="nonzero">
<g clip-path="url(#clip18)" clip-rule="nonzero">
<path style=" stroke:none;fill-rule:nonzero;fill:rgb(1.959229%,25.099182%,26.669312%);fill-opacity:1;" d="M 24.910156 2.9375 C 25.3125 3.339844 25.429688 3.964844 25.195312 4.484375 L 13.109375 31.792969 C 12.957031 32.132812 12.683594 32.394531 12.339844 32.53125 C 11.992188 32.664062 11.613281 32.65625 11.273438 32.503906 C 11.113281 32.4375 10.972656 32.339844 10.851562 32.21875 C 10.445312 31.8125 10.332031 31.191406 10.5625 30.667969 L 22.648438 3.363281 C 22.960938 2.660156 23.785156 2.339844 24.488281 2.652344 C 24.644531 2.71875 24.789062 2.816406 24.910156 2.9375 Z M 24.320312 3.527344 C 24.273438 3.480469 24.214844 3.441406 24.152344 3.410156 C 23.867188 3.285156 23.535156 3.414062 23.410156 3.699219 L 11.324219 31.003906 C 11.226562 31.222656 11.28125 31.46875 11.4375 31.628906 C 11.488281 31.675781 11.542969 31.714844 11.609375 31.746094 C 11.894531 31.871094 12.226562 31.742188 12.347656 31.457031 L 24.4375 4.152344 C 24.53125 3.933594 24.480469 3.6875 24.320312 3.527344 "/>
</g>
</g>
</g>
</g>
</svg>
